<?xml version="1.0" encoding="UTF-8" standalone="no"?><!DOCTYPE svg PUBLIC "-//W3C//DTD SVG 1.1//EN" "http://www.w3.org/Graphics/SVG/1.1/DTD/svg11.dtd"><svg width="100%" height="100%" viewBox="0 0 329 362" version="1.1" xmlns="http://www.w3.org/2000/svg" xmlns:xlink="http://www.w3.org/1999/xlink" xml:space="preserve" xmlns:serif="http://www.serif.com/" style="fill-rule:evenodd;clip-rule:evenodd;stroke-linejoin:round;stroke-miterlimit:2;"><path d="M314.007,347.517l-28.286,0l-43.125,-108.517l-177.135,-0c-17.93,42.149 -23.186,78.321 -15.766,108.517l-34.778,0l139.575,-330.271l28.286,0l131.229,330.271Zm-246.691,-113.235l173.425,-0l-83.93,-211.374l-89.495,211.374Z" style="fill:#fff;fill-rule:nonzero;"/><path d="M314.007,347.517l-0,5.898l8.595,-0l-3.222,-8.108l-5.373,2.21Zm-28.286,0l-5.374,2.211l1.465,3.687l3.909,-0l-0,-5.898Zm-43.125,-108.517l5.374,-2.211l-1.466,-3.687l-3.908,-0l0,5.898Zm-177.135,-0l-0,-5.898l-3.808,-0l-1.512,3.555l5.32,2.343Zm-15.766,108.517l-0,5.898l7.423,-0l-1.8,-7.328l-5.623,1.43Zm-34.778,0l-5.325,-2.329l-3.477,8.227l8.802,-0l-0,-5.898Zm139.575,-330.271l0,-5.897l-3.817,-0l-1.508,3.568l5.325,2.329Zm28.286,0l5.374,-2.21l-1.465,-3.687l-3.909,-0l0,5.897Zm-115.462,217.036l-5.324,-2.334l-3.485,8.231l8.809,0l-0,-5.897Zm173.425,-0l0,5.897l8.593,0l-3.219,-8.107l-5.374,2.21Zm-83.93,-211.374l5.374,-2.209l-10.698,-0.124l5.324,2.333Zm157.196,318.712l-28.286,-0l-0,11.795l28.286,-0l-0,-11.795Zm-22.913,3.687l-43.124,-108.518l-10.748,4.421l43.125,108.518l10.747,-4.421Zm-48.498,-112.205l-177.135,-0l-0,11.795l177.135,0l0,-11.795Zm-182.455,3.555c-18.205,42.796 -23.914,80.364 -16.07,112.29l11.247,-2.86c-6.994,-28.466 -2.193,-63.243 15.462,-104.744l-10.639,-4.686Zm-10.446,104.963l-34.778,-0l-0,11.795l34.778,-0l-0,-11.795Zm-29.453,8.227l139.575,-330.271l-10.65,-4.659l-139.575,330.271l10.65,4.659Zm134.25,-326.703l28.286,0l0,-11.795l-28.286,-0l0,11.795Zm22.912,-3.687l131.229,330.271l10.747,-4.421l-131.228,-330.271l-10.748,4.421Zm-110.088,220.722l173.425,0l0,-11.795l-173.425,-0l-0,11.795Zm178.799,-8.107l-83.93,-211.373l-10.749,4.418l83.931,211.374l10.748,-4.419Zm-94.628,-211.497l-89.495,211.373l10.647,4.667l89.495,-211.373l-10.647,-4.667Z" style="fill:#fff;fill-rule:nonzero;"/></svg>